<mxfile host="app.diagrams.net" modified="2023-07-21T19:27:50.377Z" agent="Mozilla/5.0 (Macintosh; Intel Mac OS X 10_15_7) AppleWebKit/537.36 (KHTML, like Gecko) Chrome/114.0.0.0 Safari/537.36" etag="Iuj4ri7tOBvzMvrzqoEB" version="21.6.5" type="github">
  <diagram name="Page-1" id="TwpJutpCZovQMLxq4rzP">
    <mxGraphModel dx="3615" dy="2391" grid="1" gridSize="10" guides="1" tooltips="1" connect="1" arrows="1" fold="1" page="0" pageScale="1" pageWidth="850" pageHeight="1100" math="0" shadow="0">
      <root>
        <mxCell id="0" />
        <mxCell id="1" parent="0" />
        <mxCell id="1ci97zbHf61z6dl400Ih-96" style="edgeStyle=orthogonalEdgeStyle;rounded=0;orthogonalLoop=1;jettySize=auto;html=1;entryX=0.543;entryY=1;entryDx=0;entryDy=0;entryPerimeter=0;" edge="1" parent="1" target="1ci97zbHf61z6dl400Ih-83">
          <mxGeometry relative="1" as="geometry">
            <mxPoint x="-389.5" y="910" as="sourcePoint" />
            <mxPoint x="797.5" y="580" as="targetPoint" />
          </mxGeometry>
        </mxCell>
        <mxCell id="1ci97zbHf61z6dl400Ih-4" value="" style="whiteSpace=wrap;html=1;aspect=fixed;fillColor=#dae8fc;strokeColor=#6c8ebf;" vertex="1" parent="1">
          <mxGeometry x="-682" y="730" width="360" height="360" as="geometry" />
        </mxCell>
        <mxCell id="1ci97zbHf61z6dl400Ih-7" value="" style="whiteSpace=wrap;html=1;aspect=fixed;fillColor=#e1d5e7;strokeColor=#9673a6;" vertex="1" parent="1">
          <mxGeometry x="460" y="-499" width="200" height="200" as="geometry" />
        </mxCell>
        <mxCell id="1ci97zbHf61z6dl400Ih-8" value="" style="whiteSpace=wrap;html=1;aspect=fixed;fillColor=#d5e8d4;strokeColor=#82b366;" vertex="1" parent="1">
          <mxGeometry x="-150" y="220" width="310" height="310" as="geometry" />
        </mxCell>
        <mxCell id="1ci97zbHf61z6dl400Ih-9" value="ICD365 Folder" style="text;html=1;strokeColor=none;fillColor=none;align=center;verticalAlign=middle;whiteSpace=wrap;rounded=0;fontSize=28;fontStyle=1" vertex="1" parent="1">
          <mxGeometry x="530" y="-559" width="60" height="30" as="geometry" />
        </mxCell>
        <mxCell id="1ci97zbHf61z6dl400Ih-11" value="PBO folder" style="text;html=1;strokeColor=none;fillColor=none;align=center;verticalAlign=middle;whiteSpace=wrap;rounded=0;fontSize=37;fontStyle=1" vertex="1" parent="1">
          <mxGeometry x="-640" y="657.5" width="60" height="30" as="geometry" />
        </mxCell>
        <mxCell id="1ci97zbHf61z6dl400Ih-12" value="LMD folder" style="text;html=1;strokeColor=none;fillColor=none;align=center;verticalAlign=middle;whiteSpace=wrap;rounded=0;fontSize=32;fontStyle=1" vertex="1" parent="1">
          <mxGeometry x="-82.5" y="150" width="145" height="30" as="geometry" />
        </mxCell>
        <mxCell id="1ci97zbHf61z6dl400Ih-15" value="&lt;span id=&quot;docs-internal-guid-84adcb99-7fff-0efb-7929-5382890f605a&quot;&gt;&lt;/span&gt;&lt;span id=&quot;docs-internal-guid-84adcb99-7fff-0efb-7929-5382890f605a&quot;&gt;&lt;/span&gt;" style="rounded=1;whiteSpace=wrap;html=1;" vertex="1" parent="1">
          <mxGeometry x="-130" y="250" width="120" height="260" as="geometry" />
        </mxCell>
        <mxCell id="1ci97zbHf61z6dl400Ih-16" value="" style="rounded=1;whiteSpace=wrap;html=1;" vertex="1" parent="1">
          <mxGeometry x="10" y="250" width="120" height="260" as="geometry" />
        </mxCell>
        <mxCell id="1ci97zbHf61z6dl400Ih-17" value="icdlmd.com" style="text;html=1;strokeColor=none;fillColor=none;align=center;verticalAlign=middle;whiteSpace=wrap;rounded=0;" vertex="1" parent="1">
          <mxGeometry x="-100" y="280" width="60" height="30" as="geometry" />
        </mxCell>
        <mxCell id="1ci97zbHf61z6dl400Ih-19" value="leadtransfers.com" style="text;html=1;strokeColor=none;fillColor=none;align=center;verticalAlign=middle;whiteSpace=wrap;rounded=0;" vertex="1" parent="1">
          <mxGeometry x="40" y="280" width="60" height="40" as="geometry" />
        </mxCell>
        <mxCell id="1ci97zbHf61z6dl400Ih-91" value="" style="edgeStyle=orthogonalEdgeStyle;rounded=0;orthogonalLoop=1;jettySize=auto;html=1;" edge="1" parent="1" source="1ci97zbHf61z6dl400Ih-20" target="1ci97zbHf61z6dl400Ih-12">
          <mxGeometry relative="1" as="geometry" />
        </mxCell>
        <mxCell id="1ci97zbHf61z6dl400Ih-20" value="" style="strokeWidth=2;html=1;shape=mxgraph.flowchart.database;whiteSpace=wrap;fillColor=#d5e8d4;strokeColor=#82b366;" vertex="1" parent="1">
          <mxGeometry x="-60" y="-10" width="110" height="110" as="geometry" />
        </mxCell>
        <mxCell id="1ci97zbHf61z6dl400Ih-21" value="&lt;h4 style=&quot;border-color: var(--border-color);&quot;&gt;MySQL&lt;/h4&gt;" style="text;html=1;strokeColor=none;fillColor=none;align=center;verticalAlign=middle;whiteSpace=wrap;rounded=0;" vertex="1" parent="1">
          <mxGeometry x="-35" y="51" width="60" height="30" as="geometry" />
        </mxCell>
        <mxCell id="1ci97zbHf61z6dl400Ih-23" value="" style="curved=1;endArrow=classic;html=1;rounded=0;entryX=0;entryY=0.709;entryDx=0;entryDy=0;entryPerimeter=0;" edge="1" parent="1" target="1ci97zbHf61z6dl400Ih-20">
          <mxGeometry width="50" height="50" relative="1" as="geometry">
            <mxPoint x="-80" y="200" as="sourcePoint" />
            <mxPoint x="-70" y="100" as="targetPoint" />
            <Array as="points">
              <mxPoint x="-70" y="150" />
              <mxPoint x="-120" y="100" />
            </Array>
          </mxGeometry>
        </mxCell>
        <mxCell id="1ci97zbHf61z6dl400Ih-24" value="" style="curved=1;endArrow=classic;html=1;rounded=0;" edge="1" parent="1" target="1ci97zbHf61z6dl400Ih-20">
          <mxGeometry width="50" height="50" relative="1" as="geometry">
            <mxPoint x="80" y="210" as="sourcePoint" />
            <mxPoint x="67" y="104" as="targetPoint" />
            <Array as="points">
              <mxPoint x="57" y="180" />
              <mxPoint x="67" y="154" />
              <mxPoint x="104" y="107" />
            </Array>
          </mxGeometry>
        </mxCell>
        <mxCell id="1ci97zbHf61z6dl400Ih-25" value="&lt;span id=&quot;docs-internal-guid-84adcb99-7fff-0efb-7929-5382890f605a&quot;&gt;&lt;/span&gt;&lt;span id=&quot;docs-internal-guid-84adcb99-7fff-0efb-7929-5382890f605a&quot;&gt;&lt;/span&gt;" style="rounded=1;whiteSpace=wrap;html=1;" vertex="1" parent="1">
          <mxGeometry x="-614.5" y="752.5" width="225" height="275" as="geometry" />
        </mxCell>
        <mxCell id="1ci97zbHf61z6dl400Ih-26" value="publicbackoffice.com&lt;br&gt;/backoffice3" style="text;html=1;strokeColor=none;fillColor=none;align=center;verticalAlign=middle;whiteSpace=wrap;rounded=0;" vertex="1" parent="1">
          <mxGeometry x="-532" y="787.5" width="60" height="30" as="geometry" />
        </mxCell>
        <mxCell id="1ci97zbHf61z6dl400Ih-29" value="" style="strokeWidth=2;html=1;shape=mxgraph.flowchart.database;whiteSpace=wrap;fillColor=#dae8fc;strokeColor=#6c8ebf;" vertex="1" parent="1">
          <mxGeometry x="-525" y="542.5" width="110" height="110" as="geometry" />
        </mxCell>
        <mxCell id="1ci97zbHf61z6dl400Ih-30" value="&lt;h4 style=&quot;border-color: var(--border-color);&quot;&gt;MySQL&lt;/h4&gt;" style="text;html=1;strokeColor=none;fillColor=none;align=center;verticalAlign=middle;whiteSpace=wrap;rounded=0;" vertex="1" parent="1">
          <mxGeometry x="-500" y="594.5" width="60" height="30" as="geometry" />
        </mxCell>
        <mxCell id="1ci97zbHf61z6dl400Ih-31" value="" style="curved=1;endArrow=classic;html=1;rounded=0;" edge="1" parent="1">
          <mxGeometry width="50" height="50" relative="1" as="geometry">
            <mxPoint x="-530" y="697.5" as="sourcePoint" />
            <mxPoint x="-530" y="607.5" as="targetPoint" />
            <Array as="points">
              <mxPoint x="-530" y="657.5" />
              <mxPoint x="-580" y="607.5" />
            </Array>
          </mxGeometry>
        </mxCell>
        <mxCell id="1ci97zbHf61z6dl400Ih-33" value="" style="rounded=0;whiteSpace=wrap;html=1;fillColor=#ffe6cc;strokeColor=#d79b00;" vertex="1" parent="1">
          <mxGeometry x="-360" y="-219" width="720" height="170" as="geometry" />
        </mxCell>
        <mxCell id="1ci97zbHf61z6dl400Ih-34" value="&lt;h4 style=&quot;font-size: 28px;&quot;&gt;CALLFLOW Folder&lt;/h4&gt;" style="text;html=1;strokeColor=none;fillColor=none;align=center;verticalAlign=middle;whiteSpace=wrap;rounded=0;fontSize=28;" vertex="1" parent="1">
          <mxGeometry x="130" y="-20" width="232" height="30" as="geometry" />
        </mxCell>
        <mxCell id="1ci97zbHf61z6dl400Ih-35" value="" style="strokeWidth=2;html=1;shape=mxgraph.flowchart.database;whiteSpace=wrap;fillColor=#ffe6cc;strokeColor=#d79b00;" vertex="1" parent="1">
          <mxGeometry x="-70" y="-430" width="110" height="110" as="geometry" />
        </mxCell>
        <mxCell id="1ci97zbHf61z6dl400Ih-36" value="&lt;h4&gt;MySQL&lt;/h4&gt;" style="text;html=1;strokeColor=none;fillColor=none;align=center;verticalAlign=middle;whiteSpace=wrap;rounded=0;" vertex="1" parent="1">
          <mxGeometry x="-40" y="-370" width="60" height="30" as="geometry" />
        </mxCell>
        <mxCell id="1ci97zbHf61z6dl400Ih-45" value="&lt;h4&gt;Dashboard&lt;/h4&gt;&lt;span id=&quot;docs-internal-guid-84adcb99-7fff-0efb-7929-5382890f605a&quot;&gt;&lt;/span&gt;" style="rounded=1;whiteSpace=wrap;html=1;" vertex="1" parent="1">
          <mxGeometry x="-340" y="-205" width="120" height="140" as="geometry" />
        </mxCell>
        <mxCell id="1ci97zbHf61z6dl400Ih-46" value="&lt;h4&gt;Vendor&lt;/h4&gt;&lt;span id=&quot;docs-internal-guid-84adcb99-7fff-0efb-7929-5382890f605a&quot;&gt;&lt;/span&gt;" style="rounded=1;whiteSpace=wrap;html=1;" vertex="1" parent="1">
          <mxGeometry x="-160" y="-205" width="120" height="140" as="geometry" />
        </mxCell>
        <mxCell id="1ci97zbHf61z6dl400Ih-47" value="&lt;h4&gt;Home&lt;/h4&gt;&lt;span id=&quot;docs-internal-guid-84adcb99-7fff-0efb-7929-5382890f605a&quot;&gt;&lt;/span&gt;" style="rounded=1;whiteSpace=wrap;html=1;" vertex="1" parent="1">
          <mxGeometry x="25" y="-205" width="120" height="140" as="geometry" />
        </mxCell>
        <mxCell id="1ci97zbHf61z6dl400Ih-48" value="&lt;h4&gt;Lead Capture&lt;/h4&gt;&lt;span id=&quot;docs-internal-guid-84adcb99-7fff-0efb-7929-5382890f605a&quot;&gt;&lt;/span&gt;" style="rounded=1;whiteSpace=wrap;html=1;" vertex="1" parent="1">
          <mxGeometry x="210" y="-205" width="120" height="140" as="geometry" />
        </mxCell>
        <mxCell id="1ci97zbHf61z6dl400Ih-53" value="" style="edgeStyle=orthogonalEdgeStyle;rounded=0;orthogonalLoop=1;jettySize=auto;html=1;" edge="1" parent="1">
          <mxGeometry relative="1" as="geometry">
            <mxPoint x="-860" y="-177.9411764705883" as="sourcePoint" />
            <mxPoint x="-780" y="-178" as="targetPoint" />
            <Array as="points">
              <mxPoint x="-826" y="-178" />
              <mxPoint x="-780" y="-177" />
            </Array>
          </mxGeometry>
        </mxCell>
        <mxCell id="1ci97zbHf61z6dl400Ih-51" value="" style="sketch=0;pointerEvents=1;shadow=0;dashed=0;html=1;strokeColor=none;fillColor=#505050;labelPosition=center;verticalLabelPosition=bottom;verticalAlign=top;outlineConnect=0;align=center;shape=mxgraph.office.users.tenant_admin;" vertex="1" parent="1">
          <mxGeometry x="-920" y="-207" width="52" height="49" as="geometry" />
        </mxCell>
        <mxCell id="1ci97zbHf61z6dl400Ih-55" style="edgeStyle=orthogonalEdgeStyle;rounded=0;orthogonalLoop=1;jettySize=auto;html=1;" edge="1" parent="1" source="1ci97zbHf61z6dl400Ih-54" target="1ci97zbHf61z6dl400Ih-45">
          <mxGeometry relative="1" as="geometry">
            <Array as="points">
              <mxPoint x="-730" y="-135" />
            </Array>
          </mxGeometry>
        </mxCell>
        <mxCell id="1ci97zbHf61z6dl400Ih-54" value="&lt;h4&gt;ADMIN&lt;/h4&gt;" style="text;html=1;align=center;verticalAlign=middle;resizable=0;points=[];autosize=1;strokeColor=none;fillColor=none;" vertex="1" parent="1">
          <mxGeometry x="-773" y="-207" width="60" height="60" as="geometry" />
        </mxCell>
        <mxCell id="1ci97zbHf61z6dl400Ih-58" value="00" style="html=1;verticalLabelPosition=bottom;align=center;labelBackgroundColor=#ffffff;verticalAlign=top;strokeWidth=2;strokeColor=#0080F0;shadow=0;dashed=0;shape=mxgraph.ios7.icons.user;" vertex="1" parent="1">
          <mxGeometry x="-920" y="-125" width="45" height="35" as="geometry" />
        </mxCell>
        <mxCell id="1ci97zbHf61z6dl400Ih-62" style="edgeStyle=orthogonalEdgeStyle;rounded=0;orthogonalLoop=1;jettySize=auto;html=1;entryX=0.687;entryY=0.997;entryDx=0;entryDy=0;entryPerimeter=0;" edge="1" parent="1" source="1ci97zbHf61z6dl400Ih-61" target="1ci97zbHf61z6dl400Ih-46">
          <mxGeometry relative="1" as="geometry">
            <Array as="points">
              <mxPoint x="-660" y="-95" />
              <mxPoint x="-660" y="-45" />
              <mxPoint x="-78" y="-45" />
            </Array>
          </mxGeometry>
        </mxCell>
        <mxCell id="1ci97zbHf61z6dl400Ih-61" value="&lt;h3&gt;VENDOR&lt;/h3&gt;" style="text;html=1;align=center;verticalAlign=middle;resizable=0;points=[];autosize=1;strokeColor=none;fillColor=none;" vertex="1" parent="1">
          <mxGeometry x="-773" y="-125" width="80" height="60" as="geometry" />
        </mxCell>
        <mxCell id="1ci97zbHf61z6dl400Ih-64" value="" style="points=[[0.35,0,0],[0.98,0.51,0],[1,0.71,0],[0.67,1,0],[0,0.795,0],[0,0.65,0]];verticalLabelPosition=bottom;sketch=0;html=1;verticalAlign=top;aspect=fixed;align=center;pointerEvents=1;shape=mxgraph.cisco19.user;fillColor=#005073;strokeColor=none;" vertex="1" parent="1">
          <mxGeometry x="-919" y="-45" width="50" height="50" as="geometry" />
        </mxCell>
        <mxCell id="1ci97zbHf61z6dl400Ih-65" value="" style="edgeStyle=orthogonalEdgeStyle;rounded=0;orthogonalLoop=1;jettySize=auto;html=1;" edge="1" parent="1">
          <mxGeometry relative="1" as="geometry">
            <mxPoint x="-860" y="-97.94117647058829" as="sourcePoint" />
            <mxPoint x="-780" y="-98" as="targetPoint" />
            <Array as="points">
              <mxPoint x="-826" y="-98" />
              <mxPoint x="-780" y="-97" />
            </Array>
          </mxGeometry>
        </mxCell>
        <mxCell id="1ci97zbHf61z6dl400Ih-66" value="" style="edgeStyle=orthogonalEdgeStyle;rounded=0;orthogonalLoop=1;jettySize=auto;html=1;" edge="1" parent="1">
          <mxGeometry relative="1" as="geometry">
            <mxPoint x="-858" y="-17.94117647058829" as="sourcePoint" />
            <mxPoint x="-778" y="-18" as="targetPoint" />
            <Array as="points">
              <mxPoint x="-824" y="-18" />
              <mxPoint x="-778" y="-17" />
            </Array>
          </mxGeometry>
        </mxCell>
        <mxCell id="1ci97zbHf61z6dl400Ih-69" style="edgeStyle=orthogonalEdgeStyle;rounded=0;orthogonalLoop=1;jettySize=auto;html=1;" edge="1" parent="1" source="1ci97zbHf61z6dl400Ih-67" target="1ci97zbHf61z6dl400Ih-47">
          <mxGeometry relative="1" as="geometry" />
        </mxCell>
        <mxCell id="1ci97zbHf61z6dl400Ih-67" value="&lt;h3&gt;Client&lt;/h3&gt;" style="text;html=1;align=center;verticalAlign=middle;resizable=0;points=[];autosize=1;strokeColor=none;fillColor=none;" vertex="1" parent="1">
          <mxGeometry x="-753" y="-50" width="60" height="60" as="geometry" />
        </mxCell>
        <mxCell id="1ci97zbHf61z6dl400Ih-72" value="" style="image;html=1;image=img/lib/clip_art/people/Suit_Woman_Blue_128x128.png" vertex="1" parent="1">
          <mxGeometry x="-920" y="-299" width="64.5" height="60" as="geometry" />
        </mxCell>
        <mxCell id="1ci97zbHf61z6dl400Ih-73" value="" style="edgeStyle=orthogonalEdgeStyle;rounded=0;orthogonalLoop=1;jettySize=auto;html=1;" edge="1" parent="1">
          <mxGeometry relative="1" as="geometry">
            <mxPoint x="-853" y="-270.5611764705883" as="sourcePoint" />
            <mxPoint x="-773" y="-270.62" as="targetPoint" />
            <Array as="points">
              <mxPoint x="-819" y="-270.62" />
              <mxPoint x="-773" y="-269.62" />
            </Array>
          </mxGeometry>
        </mxCell>
        <mxCell id="1ci97zbHf61z6dl400Ih-75" style="edgeStyle=orthogonalEdgeStyle;rounded=0;orthogonalLoop=1;jettySize=auto;html=1;" edge="1" parent="1" source="1ci97zbHf61z6dl400Ih-74" target="1ci97zbHf61z6dl400Ih-48">
          <mxGeometry relative="1" as="geometry">
            <Array as="points">
              <mxPoint x="270" y="-270" />
            </Array>
          </mxGeometry>
        </mxCell>
        <mxCell id="1ci97zbHf61z6dl400Ih-74" value="&lt;h4&gt;REP&lt;/h4&gt;" style="text;html=1;align=center;verticalAlign=middle;resizable=0;points=[];autosize=1;strokeColor=none;fillColor=none;" vertex="1" parent="1">
          <mxGeometry x="-765" y="-299" width="50" height="60" as="geometry" />
        </mxCell>
        <mxCell id="1ci97zbHf61z6dl400Ih-76" value="" style="curved=1;endArrow=classic;html=1;rounded=0;" edge="1" parent="1">
          <mxGeometry width="50" height="50" relative="1" as="geometry">
            <mxPoint x="-75" y="-260" as="sourcePoint" />
            <mxPoint x="-75" y="-350" as="targetPoint" />
            <Array as="points">
              <mxPoint x="-75" y="-300" />
              <mxPoint x="-125" y="-350" />
            </Array>
          </mxGeometry>
        </mxCell>
        <mxCell id="1ci97zbHf61z6dl400Ih-78" value="" style="shape=internalStorage;whiteSpace=wrap;html=1;backgroundOutline=1;" vertex="1" parent="1">
          <mxGeometry x="500" y="-449" width="100" height="100" as="geometry" />
        </mxCell>
        <mxCell id="1ci97zbHf61z6dl400Ih-79" value="/api" style="text;html=1;strokeColor=none;fillColor=none;align=center;verticalAlign=middle;whiteSpace=wrap;rounded=0;" vertex="1" parent="1">
          <mxGeometry x="530" y="-429" width="60" height="30" as="geometry" />
        </mxCell>
        <mxCell id="1ci97zbHf61z6dl400Ih-80" value="&lt;h1&gt;hoo.icdapi.com&lt;/h1&gt;" style="ellipse;shape=cloud;whiteSpace=wrap;html=1;fillColor=#f8cecc;strokeColor=#b85450;" vertex="1" parent="1">
          <mxGeometry x="680" y="30" width="440" height="329" as="geometry" />
        </mxCell>
        <mxCell id="1ci97zbHf61z6dl400Ih-81" value="/&lt;font style=&quot;font-size: 20px;&quot;&gt;healthOptionone&lt;/font&gt;" style="text;html=1;strokeColor=none;fillColor=none;align=center;verticalAlign=middle;whiteSpace=wrap;rounded=0;fontSize=26;fontStyle=1" vertex="1" parent="1">
          <mxGeometry x="-539" y="941.5" width="60" height="30" as="geometry" />
        </mxCell>
        <mxCell id="1ci97zbHf61z6dl400Ih-83" value="&lt;h3&gt;www.a1healthcare.com&lt;br&gt;DEAD&amp;nbsp;&lt;/h3&gt;&lt;h1&gt;&lt;span id=&quot;docs-internal-guid-eab32220-7fff-d333-40bd-e7fb0be0aa03&quot; style=&quot;font-weight:normal;&quot;&gt;&lt;/span&gt;&lt;/h1&gt;" style="ellipse;shape=cloud;whiteSpace=wrap;html=1;" vertex="1" parent="1">
          <mxGeometry x="640" y="380" width="290" height="200" as="geometry" />
        </mxCell>
        <mxCell id="1ci97zbHf61z6dl400Ih-86" value="&lt;h3&gt;letsgetappointed.com&lt;br&gt;DEAD&lt;/h3&gt;&lt;h1&gt;&lt;span id=&quot;docs-internal-guid-eab32220-7fff-d333-40bd-e7fb0be0aa03&quot; style=&quot;font-weight:normal;&quot;&gt;&lt;/span&gt;&lt;/h1&gt;" style="ellipse;shape=cloud;whiteSpace=wrap;html=1;" vertex="1" parent="1">
          <mxGeometry x="970" y="610" width="290" height="200" as="geometry" />
        </mxCell>
        <mxCell id="1ci97zbHf61z6dl400Ih-89" value="&lt;h3&gt;ws.interfax.cc&lt;br&gt;DEAD&amp;nbsp;&lt;/h3&gt;&lt;h1&gt;&lt;span id=&quot;docs-internal-guid-eab32220-7fff-d333-40bd-e7fb0be0aa03&quot; style=&quot;font-weight:normal;&quot;&gt;&lt;/span&gt;&lt;/h1&gt;" style="ellipse;shape=cloud;whiteSpace=wrap;html=1;" vertex="1" parent="1">
          <mxGeometry x="210" y="640" width="290" height="200" as="geometry" />
        </mxCell>
        <mxCell id="1ci97zbHf61z6dl400Ih-93" value="&lt;h3&gt;memberinfo.com&lt;br&gt;ALIVE&amp;nbsp;&lt;/h3&gt;&lt;h1&gt;&lt;span id=&quot;docs-internal-guid-eab32220-7fff-d333-40bd-e7fb0be0aa03&quot; style=&quot;font-weight:normal;&quot;&gt;&lt;/span&gt;&lt;/h1&gt;" style="ellipse;shape=cloud;whiteSpace=wrap;html=1;fillColor=#f5f5f5;fontColor=#333333;strokeColor=#666666;" vertex="1" parent="1">
          <mxGeometry x="1010" y="380" width="290" height="200" as="geometry" />
        </mxCell>
        <mxCell id="1ci97zbHf61z6dl400Ih-95" value="" style="endArrow=classic;startArrow=classic;html=1;rounded=0;entryX=0.092;entryY=0.7;entryDx=0;entryDy=0;entryPerimeter=0;" edge="1" parent="1" source="1ci97zbHf61z6dl400Ih-81" target="1ci97zbHf61z6dl400Ih-80">
          <mxGeometry width="50" height="50" relative="1" as="geometry">
            <mxPoint x="120" y="600" as="sourcePoint" />
            <mxPoint x="170" y="550" as="targetPoint" />
          </mxGeometry>
        </mxCell>
        <mxCell id="1ci97zbHf61z6dl400Ih-97" value="" style="endArrow=classic;html=1;rounded=0;entryX=0.584;entryY=0.954;entryDx=0;entryDy=0;entryPerimeter=0;" edge="1" parent="1" target="1ci97zbHf61z6dl400Ih-89">
          <mxGeometry width="50" height="50" relative="1" as="geometry">
            <mxPoint x="630" y="910" as="sourcePoint" />
            <mxPoint x="630" y="820" as="targetPoint" />
          </mxGeometry>
        </mxCell>
        <mxCell id="1ci97zbHf61z6dl400Ih-98" value="" style="endArrow=classic;html=1;rounded=0;" edge="1" parent="1" target="1ci97zbHf61z6dl400Ih-86">
          <mxGeometry width="50" height="50" relative="1" as="geometry">
            <mxPoint x="797" y="910" as="sourcePoint" />
            <mxPoint x="877" y="731" as="targetPoint" />
          </mxGeometry>
        </mxCell>
        <mxCell id="1ci97zbHf61z6dl400Ih-99" value="" style="endArrow=classic;html=1;rounded=0;entryX=0.239;entryY=0.83;entryDx=0;entryDy=0;entryPerimeter=0;" edge="1" parent="1">
          <mxGeometry width="50" height="50" relative="1" as="geometry">
            <mxPoint x="795" y="912" as="sourcePoint" />
            <mxPoint x="1081.3099999999995" y="550" as="targetPoint" />
          </mxGeometry>
        </mxCell>
        <mxCell id="1ci97zbHf61z6dl400Ih-100" value="&lt;h3&gt;uhpoa.com&lt;br&gt;ALIVE&lt;/h3&gt;&lt;h1&gt;&lt;span id=&quot;docs-internal-guid-eab32220-7fff-d333-40bd-e7fb0be0aa03&quot; style=&quot;font-weight:normal;&quot;&gt;&lt;/span&gt;&lt;/h1&gt;" style="ellipse;shape=cloud;whiteSpace=wrap;html=1;fillColor=#f5f5f5;fontColor=#333333;strokeColor=#666666;" vertex="1" parent="1">
          <mxGeometry x="400" y="480" width="290" height="200" as="geometry" />
        </mxCell>
        <mxCell id="1ci97zbHf61z6dl400Ih-101" value="" style="endArrow=classic;html=1;rounded=0;entryX=0.722;entryY=0.924;entryDx=0;entryDy=0;entryPerimeter=0;" edge="1" parent="1" target="1ci97zbHf61z6dl400Ih-100">
          <mxGeometry width="50" height="50" relative="1" as="geometry">
            <mxPoint x="800" y="910" as="sourcePoint" />
            <mxPoint x="610" y="700" as="targetPoint" />
          </mxGeometry>
        </mxCell>
        <mxCell id="1ci97zbHf61z6dl400Ih-102" value="&lt;h3&gt;signmyplan.com&lt;br&gt;ALIVE&amp;nbsp;&lt;/h3&gt;&lt;h1&gt;&lt;span id=&quot;docs-internal-guid-eab32220-7fff-d333-40bd-e7fb0be0aa03&quot; style=&quot;font-weight:normal;&quot;&gt;&lt;/span&gt;&lt;/h1&gt;" style="ellipse;shape=cloud;whiteSpace=wrap;html=1;fillColor=#f5f5f5;fontColor=#333333;strokeColor=#666666;" vertex="1" parent="1">
          <mxGeometry x="415" y="200" width="290" height="200" as="geometry" />
        </mxCell>
        <mxCell id="1ci97zbHf61z6dl400Ih-103" value="" style="endArrow=classic;html=1;rounded=0;entryX=0.672;entryY=0.95;entryDx=0;entryDy=0;entryPerimeter=0;" edge="1" parent="1" target="1ci97zbHf61z6dl400Ih-102">
          <mxGeometry width="50" height="50" relative="1" as="geometry">
            <mxPoint x="800" y="900" as="sourcePoint" />
            <mxPoint x="850" y="850" as="targetPoint" />
          </mxGeometry>
        </mxCell>
        <mxCell id="1ci97zbHf61z6dl400Ih-104" value="" style="endArrow=classic;startArrow=classic;html=1;rounded=0;fillColor=#f8cecc;strokeColor=#b85450;strokeWidth=2;" edge="1" parent="1" target="1ci97zbHf61z6dl400Ih-7">
          <mxGeometry width="50" height="50" relative="1" as="geometry">
            <mxPoint x="-473" y="952" as="sourcePoint" />
            <mxPoint x="730" y="270" as="targetPoint" />
          </mxGeometry>
        </mxCell>
        <mxCell id="1ci97zbHf61z6dl400Ih-105" value="" style="strokeWidth=2;html=1;shape=mxgraph.flowchart.database;whiteSpace=wrap;fillColor=#e1d5e7;strokeColor=#9673a6;" vertex="1" parent="1">
          <mxGeometry x="665" y="-680" width="110" height="110" as="geometry" />
        </mxCell>
        <mxCell id="1ci97zbHf61z6dl400Ih-106" value="&lt;h4&gt;MySQL&lt;/h4&gt;" style="text;html=1;strokeColor=none;fillColor=none;align=center;verticalAlign=middle;whiteSpace=wrap;rounded=0;" vertex="1" parent="1">
          <mxGeometry x="695" y="-620" width="60" height="30" as="geometry" />
        </mxCell>
        <mxCell id="1ci97zbHf61z6dl400Ih-107" value="" style="curved=1;endArrow=classic;html=1;rounded=0;" edge="1" parent="1">
          <mxGeometry width="50" height="50" relative="1" as="geometry">
            <mxPoint x="660" y="-510" as="sourcePoint" />
            <mxPoint x="660" y="-600" as="targetPoint" />
            <Array as="points">
              <mxPoint x="660" y="-550" />
              <mxPoint x="610" y="-600" />
            </Array>
          </mxGeometry>
        </mxCell>
        <mxCell id="1ci97zbHf61z6dl400Ih-109" value="&lt;h3&gt;virtualacd.phonefusion.com/&lt;br&gt;DEAD&lt;/h3&gt;&lt;h1&gt;&lt;span id=&quot;docs-internal-guid-eab32220-7fff-d333-40bd-e7fb0be0aa03&quot; style=&quot;font-weight:normal;&quot;&gt;&lt;/span&gt;&lt;/h1&gt;" style="ellipse;shape=cloud;whiteSpace=wrap;html=1;" vertex="1" parent="1">
          <mxGeometry x="450" y="-105" width="290" height="200" as="geometry" />
        </mxCell>
        <mxCell id="1ci97zbHf61z6dl400Ih-112" value="" style="endArrow=classic;html=1;rounded=0;exitX=1.01;exitY=0.336;exitDx=0;exitDy=0;exitPerimeter=0;entryX=0.176;entryY=0.857;entryDx=0;entryDy=0;entryPerimeter=0;" edge="1" parent="1" source="1ci97zbHf61z6dl400Ih-8" target="1ci97zbHf61z6dl400Ih-109">
          <mxGeometry width="50" height="50" relative="1" as="geometry">
            <mxPoint x="590" y="520" as="sourcePoint" />
            <mxPoint x="640" y="470" as="targetPoint" />
          </mxGeometry>
        </mxCell>
        <mxCell id="1ci97zbHf61z6dl400Ih-113" value="&lt;h3&gt;virtualacd.phonefusion.com/&lt;br&gt;DEAD&lt;/h3&gt;&lt;h1&gt;&lt;span id=&quot;docs-internal-guid-eab32220-7fff-d333-40bd-e7fb0be0aa03&quot; style=&quot;font-weight:normal;&quot;&gt;&lt;/span&gt;&lt;/h1&gt;" style="ellipse;shape=cloud;whiteSpace=wrap;html=1;" vertex="1" parent="1">
          <mxGeometry x="880" y="-170" width="290" height="200" as="geometry" />
        </mxCell>
        <mxCell id="1ci97zbHf61z6dl400Ih-114" value="" style="endArrow=classic;html=1;rounded=0;" edge="1" parent="1" source="1ci97zbHf61z6dl400Ih-8" target="1ci97zbHf61z6dl400Ih-113">
          <mxGeometry width="50" height="50" relative="1" as="geometry">
            <mxPoint x="173" y="334" as="sourcePoint" />
            <mxPoint x="511" y="76" as="targetPoint" />
          </mxGeometry>
        </mxCell>
        <mxCell id="1ci97zbHf61z6dl400Ih-116" value="" style="endArrow=classic;html=1;rounded=0;fillColor=#f8cecc;strokeColor=#b85450;strokeWidth=2;" edge="1" parent="1">
          <mxGeometry width="50" height="50" relative="1" as="geometry">
            <mxPoint x="80" y="408" as="sourcePoint" />
            <mxPoint x="-53" y="450" as="targetPoint" />
          </mxGeometry>
        </mxCell>
        <mxCell id="1ci97zbHf61z6dl400Ih-117" value="&lt;h1&gt;&lt;span id=&quot;docs-internal-guid-3d1b5f31-7fff-bc03-51ac-1e44af458692&quot; style=&quot;font-weight:normal;&quot;&gt;&lt;/span&gt;&lt;span id=&quot;docs-internal-guid-3d1b5f31-7fff-bc03-51ac-1e44af458692&quot; style=&quot;font-weight:normal;&quot;&gt;&lt;/span&gt;&lt;span id=&quot;docs-internal-guid-3d1b5f31-7fff-bc03-51ac-1e44af458692&quot; style=&quot;font-weight:normal;&quot;&gt;&lt;/span&gt;&lt;span id=&quot;docs-internal-guid-3d1b5f31-7fff-bc03-51ac-1e44af458692&quot; style=&quot;font-weight:normal;&quot;&gt;&lt;/span&gt;&lt;span id=&quot;docs-internal-guid-3d1b5f31-7fff-bc03-51ac-1e44af458692&quot; style=&quot;font-weight:normal;&quot;&gt;&lt;/span&gt;&lt;span id=&quot;docs-internal-guid-43d75e9f-7fff-f93b-06ea-4cb820695f76&quot; style=&quot;font-weight:normal;&quot;&gt;&lt;/span&gt;&lt;span id=&quot;docs-internal-guid-43d75e9f-7fff-f93b-06ea-4cb820695f76&quot; style=&quot;font-weight:normal;&quot;&gt;&lt;/span&gt;&lt;span id=&quot;docs-internal-guid-43d75e9f-7fff-f93b-06ea-4cb820695f76&quot; style=&quot;font-weight:normal;&quot;&gt;&lt;/span&gt;&lt;br&gt;&lt;/h1&gt;" style="ellipse;shape=cloud;whiteSpace=wrap;html=1;fillColor=#f8cecc;strokeColor=#b85450;" vertex="1" parent="1">
          <mxGeometry x="1120" y="-79" width="440" height="329" as="geometry" />
        </mxCell>
        <mxCell id="1ci97zbHf61z6dl400Ih-118" value="&lt;h4 style=&quot;font-size: 20px;&quot;&gt;icdlmd.com&lt;/h4&gt;" style="text;html=1;strokeColor=none;fillColor=none;align=center;verticalAlign=middle;whiteSpace=wrap;rounded=0;fontSize=20;" vertex="1" parent="1">
          <mxGeometry x="1240" y="70" width="232" height="30" as="geometry" />
        </mxCell>
        <mxCell id="1ci97zbHf61z6dl400Ih-119" value="" style="endArrow=classic;html=1;rounded=0;entryX=0.074;entryY=0.473;entryDx=0;entryDy=0;entryPerimeter=0;exitX=0.996;exitY=0.416;exitDx=0;exitDy=0;exitPerimeter=0;" edge="1" parent="1" source="1ci97zbHf61z6dl400Ih-8" target="1ci97zbHf61z6dl400Ih-117">
          <mxGeometry width="50" height="50" relative="1" as="geometry">
            <mxPoint x="170" y="350" as="sourcePoint" />
            <mxPoint x="915" y="-3" as="targetPoint" />
          </mxGeometry>
        </mxCell>
        <mxCell id="1ci97zbHf61z6dl400Ih-120" value="" style="endArrow=classic;html=1;rounded=0;fillColor=#f8cecc;strokeColor=#b85450;strokeWidth=2;" edge="1" parent="1" target="1ci97zbHf61z6dl400Ih-7">
          <mxGeometry width="50" height="50" relative="1" as="geometry">
            <mxPoint x="90" y="418" as="sourcePoint" />
            <mxPoint x="-43" y="460" as="targetPoint" />
          </mxGeometry>
        </mxCell>
        <mxCell id="1ci97zbHf61z6dl400Ih-121" value="" style="endArrow=classic;html=1;rounded=0;fillColor=#f8cecc;strokeColor=#000000;strokeWidth=1;entryX=0.053;entryY=0.441;entryDx=0;entryDy=0;entryPerimeter=0;" edge="1" parent="1" target="1ci97zbHf61z6dl400Ih-80">
          <mxGeometry width="50" height="50" relative="1" as="geometry">
            <mxPoint x="100" y="428" as="sourcePoint" />
            <mxPoint x="512" y="-289" as="targetPoint" />
          </mxGeometry>
        </mxCell>
        <mxCell id="1ci97zbHf61z6dl400Ih-122" value="&lt;h1&gt;&lt;span id=&quot;docs-internal-guid-3d1b5f31-7fff-bc03-51ac-1e44af458692&quot; style=&quot;font-weight:normal;&quot;&gt;&lt;/span&gt;&lt;span id=&quot;docs-internal-guid-3d1b5f31-7fff-bc03-51ac-1e44af458692&quot; style=&quot;font-weight:normal;&quot;&gt;&lt;/span&gt;&lt;span id=&quot;docs-internal-guid-3d1b5f31-7fff-bc03-51ac-1e44af458692&quot; style=&quot;font-weight:normal;&quot;&gt;&lt;/span&gt;&lt;span id=&quot;docs-internal-guid-3d1b5f31-7fff-bc03-51ac-1e44af458692&quot; style=&quot;font-weight:normal;&quot;&gt;&lt;/span&gt;&lt;span id=&quot;docs-internal-guid-3d1b5f31-7fff-bc03-51ac-1e44af458692&quot; style=&quot;font-weight:normal;&quot;&gt;&lt;/span&gt;&lt;span id=&quot;docs-internal-guid-43d75e9f-7fff-f93b-06ea-4cb820695f76&quot; style=&quot;font-weight:normal;&quot;&gt;&lt;/span&gt;&lt;span id=&quot;docs-internal-guid-43d75e9f-7fff-f93b-06ea-4cb820695f76&quot; style=&quot;font-weight:normal;&quot;&gt;&lt;/span&gt;&lt;span id=&quot;docs-internal-guid-43d75e9f-7fff-f93b-06ea-4cb820695f76&quot; style=&quot;font-weight:normal;&quot;&gt;&lt;/span&gt;ProducerBackoffice.com&lt;/h1&gt;" style="ellipse;shape=cloud;whiteSpace=wrap;html=1;fillColor=#f8cecc;strokeColor=#b85450;" vertex="1" parent="1">
          <mxGeometry x="1120" y="-470" width="440" height="329" as="geometry" />
        </mxCell>
        <mxCell id="1ci97zbHf61z6dl400Ih-123" value="" style="endArrow=classic;html=1;rounded=0;fillColor=#f8cecc;strokeColor=#b85450;strokeWidth=2;" edge="1" parent="1" target="1ci97zbHf61z6dl400Ih-4">
          <mxGeometry width="50" height="50" relative="1" as="geometry">
            <mxPoint x="90" y="418" as="sourcePoint" />
            <mxPoint x="-43" y="460" as="targetPoint" />
          </mxGeometry>
        </mxCell>
        <mxCell id="1ci97zbHf61z6dl400Ih-124" value="" style="endArrow=classic;html=1;rounded=0;fillColor=#f8cecc;strokeColor=#b85450;strokeWidth=2;" edge="1" parent="1" target="1ci97zbHf61z6dl400Ih-25">
          <mxGeometry width="50" height="50" relative="1" as="geometry">
            <mxPoint x="-100" y="405" as="sourcePoint" />
            <mxPoint x="-233" y="447" as="targetPoint" />
          </mxGeometry>
        </mxCell>
        <mxCell id="1ci97zbHf61z6dl400Ih-125" value="" style="endArrow=classic;html=1;rounded=0;entryX=0.102;entryY=0.682;entryDx=0;entryDy=0;entryPerimeter=0;exitX=0.996;exitY=0.416;exitDx=0;exitDy=0;exitPerimeter=0;" edge="1" parent="1" target="1ci97zbHf61z6dl400Ih-122">
          <mxGeometry width="50" height="50" relative="1" as="geometry">
            <mxPoint x="169" y="359" as="sourcePoint" />
            <mxPoint x="1163" y="87" as="targetPoint" />
          </mxGeometry>
        </mxCell>
      </root>
    </mxGraphModel>
  </diagram>
</mxfile>
